<svg width="614" height="126" viewBox="0 0 614 126" fill="none" xmlns="http://www.w3.org/2000/svg">
<rect width="614" height="126" fill="#E5E5E5"/>
<g filter="url(#filter0_i)">
<path d="M3.7 58.4C3.23333 57.6667 2.8 56.6667 2.4 55.4C2 54.1333 1.8 52.8 1.8 51.4C1.8 48.8 2.36667 46.9333 3.5 45.8C4.7 44.6667 6.23333 44.1 8.1 44.1H51.7C52.1667 44.8333 52.6 45.8333 53 47.1C53.4 48.3667 53.6 49.7 53.6 51.1C53.6 53.7 53 55.5667 51.8 56.7C50.6667 57.8333 49.1667 58.4 47.3 58.4H36.2V104.6C35.4667 104.8 34.3 105 32.7 105.2C31.1667 105.4 29.6333 105.5 28.1 105.5C26.5667 105.5 25.2 105.367 24 105.1C22.8667 104.9 21.9 104.5 21.1 103.9C20.3 103.3 19.7 102.467 19.3 101.4C18.9 100.333 18.7 98.9333 18.7 97.2V58.4H3.7ZM73.7625 104.9C73.0958 105.1 72.0292 105.3 70.5625 105.5C69.1625 105.7 67.6958 105.8 66.1625 105.8C64.6958 105.8 63.3625 105.7 62.1625 105.5C61.0292 105.3 60.0625 104.9 59.2625 104.3C58.4625 103.7 57.8292 102.9 57.3625 101.9C56.9625 100.833 56.7625 99.4667 56.7625 97.8V67.8C56.7625 66.2667 57.0292 64.9667 57.5625 63.9C58.1625 62.7667 58.9958 61.7667 60.0625 60.9C61.1292 60.0333 62.4292 59.2667 63.9625 58.6C65.5625 57.8667 67.2625 57.2333 69.0625 56.7C70.8625 56.1667 72.7292 55.7667 74.6625 55.5C76.5958 55.1667 78.5292 55 80.4625 55C83.6625 55 86.1958 55.6333 88.0625 56.9C89.9292 58.1 90.8625 60.1 90.8625 62.9C90.8625 63.8333 90.7292 64.7667 90.4625 65.7C90.1958 66.5667 89.8625 67.3667 89.4625 68.1C88.0625 68.1 86.6292 68.1667 85.1625 68.3C83.6958 68.4333 82.2625 68.6333 80.8625 68.9C79.4625 69.1667 78.1292 69.4667 76.8625 69.8C75.6625 70.0667 74.6292 70.4 73.7625 70.8V104.9ZM97.4758 42.9C97.4758 40.3667 98.3091 38.2333 99.9758 36.5C101.709 34.7667 103.976 33.9 106.776 33.9C109.576 33.9 111.809 34.7667 113.476 36.5C115.209 38.2333 116.076 40.3667 116.076 42.9C116.076 45.4333 115.209 47.5667 113.476 49.3C111.809 51.0333 109.576 51.9 106.776 51.9C103.976 51.9 101.709 51.0333 99.9758 49.3C98.3091 47.5667 97.4758 45.4333 97.4758 42.9ZM115.276 104.9C114.542 105.033 113.442 105.2 111.976 105.4C110.576 105.667 109.142 105.8 107.676 105.8C106.209 105.8 104.876 105.7 103.676 105.5C102.542 105.3 101.576 104.9 100.776 104.3C99.9758 103.7 99.3424 102.9 98.8758 101.9C98.4758 100.833 98.2758 99.4667 98.2758 97.8V57.1C99.0091 56.9667 100.076 56.8 101.476 56.6C102.942 56.3333 104.409 56.2 105.876 56.2C107.342 56.2 108.642 56.3 109.776 56.5C110.976 56.7 111.976 57.1 112.776 57.7C113.576 58.3 114.176 59.1333 114.576 60.2C115.042 61.2 115.276 62.5333 115.276 64.2V104.9ZM148.398 54.9C152.398 54.9 156.098 55.4333 159.498 56.5C162.965 57.5 165.932 59.0667 168.398 61.2C170.865 63.3333 172.798 66.0333 174.198 69.3C175.598 72.5 176.298 76.3333 176.298 80.8C176.298 85.0667 175.698 88.8 174.498 92C173.298 95.2 171.598 97.9 169.398 100.1C167.198 102.233 164.532 103.833 161.398 104.9C158.332 105.967 154.898 106.5 151.098 106.5C148.232 106.5 145.565 106.067 143.098 105.2V121.8C142.432 122 141.365 122.2 139.898 122.4C138.432 122.667 136.932 122.8 135.398 122.8C133.932 122.8 132.598 122.7 131.398 122.5C130.265 122.3 129.298 121.9 128.498 121.3C127.698 120.7 127.098 119.867 126.698 118.8C126.298 117.8 126.098 116.467 126.098 114.8V66.8C126.098 65 126.465 63.5333 127.198 62.4C127.998 61.2667 129.065 60.2333 130.398 59.3C132.465 57.9667 135.032 56.9 138.098 56.1C141.165 55.3 144.598 54.9 148.398 54.9ZM148.598 93.1C155.465 93.1 158.898 89 158.898 80.8C158.898 76.5333 158.032 73.3667 156.298 71.3C154.632 69.2333 152.198 68.2 148.998 68.2C147.732 68.2 146.598 68.3667 145.598 68.7C144.598 68.9667 143.732 69.3 142.998 69.7V91.7C143.798 92.1 144.665 92.4333 145.598 92.7C146.532 92.9667 147.532 93.1 148.598 93.1ZM178.114 58.4C177.647 57.6667 177.214 56.6667 176.814 55.4C176.414 54.1333 176.214 52.8 176.214 51.4C176.214 48.8 176.781 46.9333 177.914 45.8C179.114 44.6667 180.647 44.1 182.514 44.1H226.114C226.581 44.8333 227.014 45.8333 227.414 47.1C227.814 48.3667 228.014 49.7 228.014 51.1C228.014 53.7 227.414 55.5667 226.214 56.7C225.081 57.8333 223.581 58.4 221.714 58.4H210.614V104.6C209.881 104.8 208.714 105 207.114 105.2C205.581 105.4 204.047 105.5 202.514 105.5C200.981 105.5 199.614 105.367 198.414 105.1C197.281 104.9 196.314 104.5 195.514 103.9C194.714 103.3 194.114 102.467 193.714 101.4C193.314 100.333 193.114 98.9333 193.114 97.2V58.4H178.114ZM248.177 104.9C247.51 105.1 246.443 105.3 244.977 105.5C243.577 105.7 242.11 105.8 240.577 105.8C239.11 105.8 237.777 105.7 236.577 105.5C235.443 105.3 234.477 104.9 233.677 104.3C232.877 103.7 232.243 102.9 231.777 101.9C231.377 100.833 231.177 99.4667 231.177 97.8V67.8C231.177 66.2667 231.443 64.9667 231.977 63.9C232.577 62.7667 233.41 61.7667 234.477 60.9C235.543 60.0333 236.843 59.2667 238.377 58.6C239.977 57.8667 241.677 57.2333 243.477 56.7C245.277 56.1667 247.143 55.7667 249.077 55.5C251.01 55.1667 252.943 55 254.877 55C258.077 55 260.61 55.6333 262.477 56.9C264.343 58.1 265.277 60.1 265.277 62.9C265.277 63.8333 265.143 64.7667 264.877 65.7C264.61 66.5667 264.277 67.3667 263.877 68.1C262.477 68.1 261.043 68.1667 259.577 68.3C258.11 68.4333 256.677 68.6333 255.277 68.9C253.877 69.1667 252.543 69.4667 251.277 69.8C250.077 70.0667 249.043 70.4 248.177 70.8V104.9ZM291.625 94.2C292.758 94.2 293.992 94.1 295.325 93.9C296.725 93.6333 297.758 93.3 298.425 92.9V84.9L291.225 85.5C289.358 85.6333 287.825 86.0333 286.625 86.7C285.425 87.3667 284.825 88.3667 284.825 89.7C284.825 91.0333 285.325 92.1333 286.325 93C287.392 93.8 289.158 94.2 291.625 94.2ZM290.825 54.9C294.425 54.9 297.692 55.2667 300.625 56C303.625 56.7333 306.158 57.8667 308.225 59.4C310.358 60.8667 311.992 62.7667 313.125 65.1C314.258 67.3667 314.825 70.0667 314.825 73.2V95.6C314.825 97.3333 314.325 98.7667 313.325 99.9C312.392 100.967 311.258 101.9 309.925 102.7C305.592 105.3 299.492 106.6 291.625 106.6C288.092 106.6 284.892 106.267 282.025 105.6C279.225 104.933 276.792 103.933 274.725 102.6C272.725 101.267 271.158 99.5667 270.025 97.5C268.958 95.4333 268.425 93.0333 268.425 90.3C268.425 85.7 269.792 82.1667 272.525 79.7C275.258 77.2333 279.492 75.7 285.225 75.1L298.325 73.7V73C298.325 71.0667 297.458 69.7 295.725 68.9C294.058 68.0333 291.625 67.6 288.425 67.6C285.892 67.6 283.425 67.8667 281.025 68.4C278.625 68.9333 276.458 69.6 274.525 70.4C273.658 69.8 272.925 68.9 272.325 67.7C271.725 66.4333 271.425 65.1333 271.425 63.8C271.425 62.0667 271.825 60.7 272.625 59.7C273.492 58.6333 274.792 57.7333 276.525 57C278.458 56.2667 280.725 55.7333 283.325 55.4C285.992 55.0667 288.492 54.9 290.825 54.9ZM352.62 68.3C350.953 68.3 349.353 68.5667 347.82 69.1C346.353 69.6333 345.053 70.4333 343.92 71.5C342.853 72.5 341.986 73.7667 341.32 75.3C340.653 76.8333 340.32 78.6333 340.32 80.7C340.32 84.8333 341.486 87.9333 343.82 90C346.22 92.0667 349.12 93.1 352.52 93.1C354.52 93.1 356.253 92.8667 357.72 92.4C359.186 91.9333 360.486 91.4333 361.62 90.9C362.953 91.8333 363.953 92.8667 364.62 94C365.286 95.0667 365.62 96.3667 365.62 97.9C365.62 100.633 364.32 102.767 361.72 104.3C359.12 105.767 355.52 106.5 350.92 106.5C346.72 106.5 342.92 105.9 339.52 104.7C336.12 103.433 333.186 101.7 330.72 99.5C328.32 97.2333 326.453 94.5333 325.12 91.4C323.786 88.2667 323.12 84.8 323.12 81C323.12 76.6 323.82 72.7667 325.22 69.5C326.686 66.1667 328.653 63.4333 331.12 61.3C333.586 59.1667 336.42 57.5667 339.62 56.5C342.886 55.4333 346.32 54.9 349.92 54.9C354.72 54.9 358.42 55.7667 361.02 57.5C363.62 59.2333 364.92 61.4667 364.92 64.2C364.92 65.4667 364.62 66.6667 364.02 67.8C363.42 68.8667 362.72 69.8 361.92 70.6C360.786 70.0667 359.42 69.5667 357.82 69.1C356.22 68.5667 354.486 68.3 352.62 68.3ZM421.645 96.2C421.312 99.3333 420.379 101.733 418.845 103.4C417.379 105.067 415.212 105.9 412.345 105.9C410.212 105.9 408.312 105.4 406.645 104.4C404.979 103.333 403.179 101.567 401.245 99.1L391.345 86.7V104.9C390.612 105.033 389.512 105.2 388.045 105.4C386.645 105.667 385.212 105.8 383.745 105.8C382.279 105.8 380.945 105.7 379.745 105.5C378.612 105.3 377.645 104.9 376.845 104.3C376.045 103.7 375.412 102.9 374.945 101.9C374.545 100.833 374.345 99.4667 374.345 97.8V39.9C375.079 39.7 376.145 39.5 377.545 39.3C379.012 39.0333 380.479 38.9 381.945 38.9C383.412 38.9 384.712 39 385.845 39.2C387.045 39.4 388.045 39.8 388.845 40.4C389.645 41 390.245 41.8333 390.645 42.9C391.112 43.9 391.345 45.2333 391.345 46.9V73.3L408.545 55.7C412.012 55.7 414.779 56.4667 416.845 58C418.979 59.5333 420.045 61.4667 420.045 63.8C420.045 64.8 419.879 65.7333 419.545 66.6C419.212 67.4 418.679 68.2333 417.945 69.1C417.279 69.9667 416.379 70.9 415.245 71.9C414.179 72.8333 412.912 73.9333 411.445 75.2L405.645 80.2L421.645 96.2ZM453.068 106.6C449.135 106.6 445.468 106.067 442.068 105C438.735 103.867 435.801 102.2 433.268 100C430.801 97.8 428.835 95.0333 427.368 91.7C425.968 88.3667 425.268 84.4667 425.268 80C425.268 75.6 425.968 71.8333 427.368 68.7C428.835 65.5 430.735 62.9 433.068 60.9C435.401 58.8333 438.068 57.3333 441.068 56.4C444.068 55.4 447.135 54.9 450.268 54.9C453.801 54.9 457.001 55.4333 459.868 56.5C462.801 57.5667 465.301 59.0333 467.368 60.9C469.501 62.7667 471.135 65 472.268 67.6C473.468 70.2 474.068 73.0333 474.068 76.1C474.068 78.3667 473.435 80.1 472.168 81.3C470.901 82.5 469.135 83.2667 466.868 83.6L442.168 87.3C442.901 89.5 444.401 91.1667 446.668 92.3C448.935 93.3667 451.535 93.9 454.468 93.9C457.201 93.9 459.768 93.5667 462.168 92.9C464.635 92.1667 466.635 91.3333 468.168 90.4C469.235 91.0667 470.135 92 470.868 93.2C471.601 94.4 471.968 95.6667 471.968 97C471.968 100 470.568 102.233 467.768 103.7C465.635 104.833 463.235 105.6 460.568 106C457.901 106.4 455.401 106.6 453.068 106.6ZM450.268 67.3C448.668 67.3 447.268 67.5667 446.068 68.1C444.935 68.6333 444.001 69.3333 443.268 70.2C442.535 71 441.968 71.9333 441.568 73C441.235 74 441.035 75.0333 440.968 76.1L458.068 73.3C457.868 71.9667 457.135 70.6333 455.868 69.3C454.601 67.9667 452.735 67.3 450.268 67.3ZM499.251 104.9C498.584 105.1 497.517 105.3 496.051 105.5C494.651 105.7 493.184 105.8 491.651 105.8C490.184 105.8 488.851 105.7 487.651 105.5C486.517 105.3 485.551 104.9 484.751 104.3C483.951 103.7 483.317 102.9 482.851 101.9C482.451 100.833 482.251 99.4667 482.251 97.8V67.8C482.251 66.2667 482.517 64.9667 483.051 63.9C483.651 62.7667 484.484 61.7667 485.551 60.9C486.617 60.0333 487.917 59.2667 489.451 58.6C491.051 57.8667 492.751 57.2333 494.551 56.7C496.351 56.1667 498.217 55.7667 500.151 55.5C502.084 55.1667 504.017 55 505.951 55C509.151 55 511.684 55.6333 513.551 56.9C515.417 58.1 516.351 60.1 516.351 62.9C516.351 63.8333 516.217 64.7667 515.951 65.7C515.684 66.5667 515.351 67.3667 514.951 68.1C513.551 68.1 512.117 68.1667 510.651 68.3C509.184 68.4333 507.751 68.6333 506.351 68.9C504.951 69.1667 503.617 69.4667 502.351 69.8C501.151 70.0667 500.117 70.4 499.251 70.8V104.9Z" fill="#CC3A00"/>
<g clip-path="url(#clip0)">
<path d="M613.089 37.2181C610.013 34.7951 599.572 39.0895 596.496 41.5125L584.177 51.2144H528.14C526.808 51.2144 525.663 51.9598 525.414 52.9906C525.165 54.0213 525.881 55.0454 527.12 55.4308L564.176 66.9634L541.453 84.8573H519.961C519.5 84.8585 519.103 85.1162 519.017 85.4736C518.93 85.832 519.178 86.1865 519.608 86.3199L537.693 91.9488C537.798 92.3064 537.943 92.6562 538.13 92.9984L537.339 93.6228C536.212 94.5099 536.212 95.9472 537.339 96.8354C538.465 97.723 540.293 97.723 541.419 96.8354L542.191 96.2276C542.629 96.3798 543.08 96.4997 543.54 96.5856L550.511 110.655C550.679 110.994 551.13 111.19 551.585 111.124C551.78 111.096 551.953 111.02 552.087 110.915C552.263 110.778 552.368 110.588 552.368 110.379V93.8106L575.452 75.633L589.958 104.911C590.444 105.889 591.745 106.458 593.056 106.264C593.622 106.18 594.12 105.964 594.505 105.664C595.011 105.263 595.318 104.714 595.319 104.116V59.9878L607.638 50.2861C610.713 47.8633 616.165 39.6408 613.089 37.2181Z" fill="#CC3A00"/>
</g>
</g>
<defs>
<filter id="filter0_i" x="1.80005" y="33.9" width="612.2" height="92.9" filterUnits="userSpaceOnUse" color-interpolation-filters="sRGB">
<feFlood flood-opacity="0" result="BackgroundImageFix"/>
<feBlend mode="normal" in="SourceGraphic" in2="BackgroundImageFix" result="shape"/>
<feColorMatrix in="SourceAlpha" type="matrix" values="0 0 0 0 0 0 0 0 0 0 0 0 0 0 0 0 0 0 127 0" result="hardAlpha"/>
<feOffset dy="4"/>
<feGaussianBlur stdDeviation="2"/>
<feComposite in2="hardAlpha" operator="arithmetic" k2="-1" k3="1"/>
<feColorMatrix type="matrix" values="0 0 0 0 0 0 0 0 0 0 0 0 0 0 0 0 0 0 0.25 0"/>
<feBlend mode="normal" in2="shape" result="effect1_innerShadow"/>
</filter>
<clipPath id="clip0">
<rect width="95" height="74.8125" fill="white" transform="translate(519 36.4125)"/>
</clipPath>
</defs>
</svg>
