<svg width="772" height="127" viewBox="0 0 772 127" fill="none" xmlns="http://www.w3.org/2000/svg">
<g clip-path="url(#clip0)">
<g filter="url(#filter0_i)">
<path d="M80.1 36.4C83.7667 36.4 85.6 37.9 85.6 40.9C85.6 41.8333 85.4 43 85 44.4L82.6 52.5C81.8667 54.9667 80.9667 56.7 79.9 57.7C78.8333 58.7 77.3 59.2 75.3 59.2C73.6333 59.2 72.3333 58.7667 71.4 57.9C70.5333 57.0333 69.7 55.6667 68.9 53.8L67.2 49.7C66.6667 48.4333 66.1 47.5667 65.5 47.1C64.9 46.6333 63.9667 46.4 62.7 46.4H60.4L47.7 91.1C47.5 91.9667 47.4 92.7333 47.4 93.4C47.4 94.2 47.5 94.8667 47.7 95.4C47.9667 95.9333 48.3333 96.5 48.8 97.1C49.4 98.0333 49.7 98.8 49.7 99.4C49.7 99.5333 49.6333 99.8667 49.5 100.4C49.1667 101.267 48.5 101.9 47.5 102.3C46.5667 102.7 45.2 102.9 43.4 102.9H19.9C18.5 102.9 17.4 102.667 16.6 102.2C15.8667 101.733 15.5 101.067 15.5 100.2C15.5 99.8 15.6 99.4 15.8 99C16.0667 98.4 16.3667 97.9667 16.7 97.7C17.1 97.3667 17.6667 96.9667 18.4 96.5C19.4 95.9 20.2333 95.2333 20.9 94.5C21.5667 93.7667 22.1333 92.6333 22.6 91.1L35.2 46.4H32.9C31.4333 46.4 30.2333 46.6333 29.3 47.1C28.3667 47.5667 27.3667 48.4333 26.3 49.7L23 53.8C21.4667 55.6 19.9667 56.9667 18.5 57.9C17.1 58.7667 15.5667 59.2 13.9 59.2C12.3667 59.2 11.1667 58.8 10.3 58C9.43333 57.2 9 56.1 9 54.7C9 54.0333 9.1 53.3 9.3 52.5L11.9 43.4C12.4333 41.5333 13.0333 40.1333 13.7 39.2C14.3667 38.2 15.3 37.5 16.5 37.1C17.7667 36.6333 19.5333 36.4 21.8 36.4H80.1ZM124.979 50.1C128.712 50.1 131.679 51.2333 133.879 53.5C136.146 55.7667 137.279 58.5667 137.279 61.9C137.279 63.1667 137.146 64.3333 136.879 65.4C136.212 68.1333 134.946 70.2333 133.079 71.7C131.212 73.1667 128.979 73.9 126.379 73.9C123.846 73.9 121.912 73.3 120.579 72.1C119.312 70.9 118.179 69.3 117.179 67.3C116.646 66.1667 116.146 65.3333 115.679 64.8C115.212 64.2667 114.679 64 114.079 64C113.412 64 112.812 64.2667 112.279 64.8C111.812 65.3333 111.379 66.2667 110.979 67.6L103.279 92.6C103.146 92.9333 103.079 93.4333 103.079 94.1C103.079 94.9667 103.312 95.7 103.779 96.3C104.312 96.8333 105.012 97.3667 105.879 97.9C106.679 98.4333 107.212 98.8667 107.479 99.2C107.746 99.5333 107.846 99.9667 107.779 100.5C107.646 101.367 107.146 102 106.279 102.4C105.479 102.8 104.079 103 102.079 103H76.4789C74.7456 103 73.5122 102.733 72.7789 102.2C71.9789 101.6 71.6789 100.833 71.8789 99.9C72.1456 99.1 72.8456 98.4 73.9789 97.8C74.9789 97.2667 75.8122 96.6333 76.4789 95.9C77.1456 95.1667 77.7122 94 78.1789 92.4L87.0789 63.5C87.2122 63.1667 87.2789 62.7 87.2789 62.1C87.2789 61.3667 87.1122 60.8 86.7789 60.4C86.5122 60 86.0456 59.5 85.3789 58.9C84.7122 58.3667 84.2456 57.9 83.9789 57.5C83.7122 57.1 83.6789 56.5667 83.8789 55.9C84.2789 54.3667 86.3789 53.0333 90.1789 51.9C93.9789 50.7 97.9456 50.1 102.079 50.1C104.812 50.1 107.079 50.7333 108.879 52C110.679 53.2 111.846 54.9333 112.379 57.2C115.579 52.4667 119.779 50.1 124.979 50.1ZM160.089 50.1C163.956 50.1 166.789 50.8333 168.589 52.3C170.389 53.7667 171.289 55.7667 171.289 58.3C171.289 59.8333 171.056 61.3 170.589 62.7L161.389 92.6C161.189 93.4 161.089 94.1 161.089 94.7C161.089 95.5667 161.256 96.2667 161.589 96.8C161.922 97.2667 162.389 97.7333 162.989 98.2C163.456 98.6667 163.789 99.0667 163.989 99.4C164.189 99.6667 164.222 100.033 164.089 100.5C163.756 101.367 163.089 102 162.089 102.4C161.089 102.8 159.556 103 157.489 103H134.689C132.956 103 131.689 102.733 130.889 102.2C130.089 101.6 129.822 100.833 130.089 99.9C130.356 99.1 131.056 98.4 132.189 97.8C133.189 97.2667 134.022 96.6333 134.689 95.9C135.356 95.1667 135.922 94 136.389 92.4L145.089 63.5C145.289 62.9 145.389 62.4 145.389 62C145.389 61.2667 145.222 60.7 144.889 60.3C144.556 59.8333 144.056 59.3667 143.389 58.9C142.722 58.3667 142.256 57.9 141.989 57.5C141.722 57.1 141.689 56.5667 141.889 55.9C142.289 54.3667 144.389 53.0333 148.189 51.9C151.989 50.7 155.956 50.1 160.089 50.1ZM166.789 28C169.389 28 171.556 28.8667 173.289 30.6C175.022 32.2667 175.889 34.3333 175.889 36.8C175.889 38.5333 175.422 40.2333 174.489 41.9C173.622 43.5667 172.356 44.9333 170.689 46C169.089 47 167.289 47.5 165.289 47.5C162.756 47.5 160.622 46.6667 158.889 45C157.222 43.2667 156.356 41.1333 156.289 38.6C156.289 36.9333 156.722 35.3 157.589 33.7C158.456 32.0333 159.689 30.6667 161.289 29.6C162.889 28.5333 164.722 28 166.789 28ZM222.71 49.7C227.843 49.7 231.877 51.4 234.81 54.8C237.743 58.2 239.21 62.8333 239.21 68.7C239.21 71.8333 238.777 75.1333 237.91 78.6C235.91 86.8667 232.177 93.1667 226.71 97.5C221.243 101.767 214.91 103.9 207.71 103.9C203.11 103.9 199.11 102.933 195.71 101L192.51 111.7C192.243 112.433 192.11 113.133 192.11 113.8C192.11 114.533 192.277 115.133 192.61 115.6C192.943 116.133 193.377 116.633 193.91 117.1C194.443 117.633 194.777 118.067 194.91 118.4C195.11 118.733 195.143 119.133 195.01 119.6C194.743 120.467 194.11 121.067 193.11 121.4C192.11 121.8 190.577 122 188.51 122H165.61C163.877 122 162.643 121.7 161.91 121.1C161.11 120.567 160.877 119.867 161.21 119C161.343 118.467 161.577 118.033 161.91 117.7C162.243 117.367 162.71 117.067 163.31 116.8C164.31 116.133 165.11 115.433 165.71 114.7C166.31 114.033 166.843 112.933 167.31 111.4L181.91 63.5C182.11 62.9 182.21 62.4 182.21 62C182.21 61.2667 182.043 60.7 181.71 60.3C181.377 59.8333 180.877 59.3667 180.21 58.9C179.543 58.3667 179.077 57.9 178.81 57.5C178.543 57.1 178.51 56.5667 178.71 55.9C179.11 54.3667 181.21 53.0333 185.01 51.9C188.81 50.7 192.777 50.1 196.91 50.1C199.843 50.1 202.243 50.8333 204.11 52.3C206.043 53.7667 207.143 55.8 207.41 58.4C211.943 52.6 217.043 49.7 222.71 49.7ZM211.11 79.4C212.71 73.4667 213.51 69.3667 213.51 67.1C213.51 65.7 213.277 64.8 212.81 64.4C212.41 63.9333 211.81 63.7 211.01 63.7C210.41 63.7 209.643 64 208.71 64.6C207.777 65.1333 206.843 66.0667 205.91 67.4L198.01 93.6C198.81 94.4 199.777 94.8 200.91 94.8C202.71 94.8 204.41 93.8 206.01 91.8C207.677 89.7333 209.377 85.6 211.11 79.4ZM319.651 36.4C323.317 36.4 325.151 37.9 325.151 40.9C325.151 41.8333 324.951 43 324.551 44.4L322.151 52.5C321.417 54.9667 320.517 56.7 319.451 57.7C318.384 58.7 316.851 59.2 314.851 59.2C313.184 59.2 311.884 58.7667 310.951 57.9C310.084 57.0333 309.251 55.6667 308.451 53.8L306.751 49.7C306.217 48.4333 305.651 47.5667 305.051 47.1C304.451 46.6333 303.517 46.4 302.251 46.4H299.951L287.251 91.1C287.051 91.9667 286.951 92.7333 286.951 93.4C286.951 94.2 287.051 94.8667 287.251 95.4C287.517 95.9333 287.884 96.5 288.351 97.1C288.951 98.0333 289.251 98.8 289.251 99.4C289.251 99.5333 289.184 99.8667 289.051 100.4C288.717 101.267 288.051 101.9 287.051 102.3C286.117 102.7 284.751 102.9 282.951 102.9H259.451C258.051 102.9 256.951 102.667 256.151 102.2C255.417 101.733 255.051 101.067 255.051 100.2C255.051 99.8 255.151 99.4 255.351 99C255.617 98.4 255.917 97.9667 256.251 97.7C256.651 97.3667 257.217 96.9667 257.951 96.5C258.951 95.9 259.784 95.2333 260.451 94.5C261.117 93.7667 261.684 92.6333 262.151 91.1L274.751 46.4H272.451C270.984 46.4 269.784 46.6333 268.851 47.1C267.917 47.5667 266.917 48.4333 265.851 49.7L262.551 53.8C261.017 55.6 259.517 56.9667 258.051 57.9C256.651 58.7667 255.117 59.2 253.451 59.2C251.917 59.2 250.717 58.8 249.851 58C248.984 57.2 248.551 56.1 248.551 54.7C248.551 54.0333 248.651 53.3 248.851 52.5L251.451 43.4C251.984 41.5333 252.584 40.1333 253.251 39.2C253.917 38.2 254.851 37.5 256.051 37.1C257.317 36.6333 259.084 36.4 261.351 36.4H319.651ZM364.53 50.1C368.263 50.1 371.23 51.2333 373.43 53.5C375.696 55.7667 376.83 58.5667 376.83 61.9C376.83 63.1667 376.696 64.3333 376.43 65.4C375.763 68.1333 374.496 70.2333 372.63 71.7C370.763 73.1667 368.53 73.9 365.93 73.9C363.396 73.9 361.463 73.3 360.13 72.1C358.863 70.9 357.73 69.3 356.73 67.3C356.196 66.1667 355.696 65.3333 355.23 64.8C354.763 64.2667 354.23 64 353.63 64C352.963 64 352.363 64.2667 351.83 64.8C351.363 65.3333 350.93 66.2667 350.53 67.6L342.83 92.6C342.696 92.9333 342.63 93.4333 342.63 94.1C342.63 94.9667 342.863 95.7 343.33 96.3C343.863 96.8333 344.563 97.3667 345.43 97.9C346.23 98.4333 346.763 98.8667 347.03 99.2C347.296 99.5333 347.396 99.9667 347.33 100.5C347.196 101.367 346.696 102 345.83 102.4C345.03 102.8 343.63 103 341.63 103H316.03C314.296 103 313.063 102.733 312.33 102.2C311.53 101.6 311.23 100.833 311.43 99.9C311.696 99.1 312.396 98.4 313.53 97.8C314.53 97.2667 315.363 96.6333 316.03 95.9C316.696 95.1667 317.263 94 317.73 92.4L326.63 63.5C326.763 63.1667 326.83 62.7 326.83 62.1C326.83 61.3667 326.663 60.8 326.33 60.4C326.063 60 325.596 59.5 324.93 58.9C324.263 58.3667 323.796 57.9 323.53 57.5C323.263 57.1 323.23 56.5667 323.43 55.9C323.83 54.3667 325.93 53.0333 329.73 51.9C333.53 50.7 337.496 50.1 341.63 50.1C344.363 50.1 346.63 50.7333 348.43 52C350.23 53.2 351.396 54.9333 351.93 57.2C355.13 52.4667 359.33 50.1 364.53 50.1ZM407.087 50.1C414.753 50.1 420.887 51.5333 425.487 54.4C430.087 57.2 432.387 61.5 432.387 67.3C432.387 69.5 431.987 72 431.187 74.8L427.087 88.6C427.02 88.8667 426.987 89.2 426.987 89.6C426.987 90.6667 427.42 91.2 428.287 91.2C429.087 91.2 429.753 90.8667 430.287 90.2C430.887 89.4667 431.287 89.1 431.487 89.1C431.82 89.1 432.087 89.3333 432.287 89.8C432.553 90.2667 432.687 90.8 432.687 91.4C432.753 93.2 432.053 95.0333 430.587 96.9C429.187 98.7667 427.287 100.3 424.887 101.5C422.487 102.7 419.853 103.3 416.987 103.3C413.52 103.3 410.553 102.667 408.087 101.4C405.62 100.133 403.92 98.2667 402.987 95.8C400.987 98.2 398.62 100.067 395.887 101.4C393.153 102.667 390.22 103.3 387.087 103.3C383.553 103.3 380.587 102.633 378.187 101.3C375.787 99.9 373.987 98.1333 372.787 96C371.653 93.8 371.087 91.5 371.087 89.1C371.087 88.0333 371.187 87 371.387 86C372.453 81.4 374.753 77.9333 378.287 75.6C381.887 73.2667 386.153 72.1 391.087 72.1C396.62 72.1 402.053 72.9667 407.387 74.7L409.887 68.1C410.753 65.3 411.187 63.1333 411.187 61.6C411.12 60 410.587 58.8 409.587 58C408.587 57.2 407.053 56.8 404.987 56.8C405.387 57.8667 405.587 58.9667 405.587 60.1C405.587 62.5667 404.653 64.7 402.787 66.5C400.92 68.3 398.253 69.2 394.787 69.2C391.52 69.2 388.953 68.5 387.087 67.1C385.287 65.6333 384.387 63.8333 384.387 61.7C384.387 58.3667 386.253 55.6 389.987 53.4C393.72 51.2 399.42 50.1 407.087 50.1ZM401.487 80.4C399.62 80.4 398.087 81.1333 396.887 82.6C395.753 84 395.187 85.5333 395.187 87.2C395.187 88.2667 395.42 89.1333 395.887 89.8C396.42 90.4667 397.153 90.8 398.087 90.8C398.953 90.8 399.887 90.4667 400.887 89.8C401.953 89.0667 402.72 88 403.187 86.6L405.287 80.7C404.153 80.5 402.887 80.4 401.487 80.4ZM470.089 49.6C474.156 49.6 477.722 50.2 480.789 51.4C483.856 52.5333 486.222 54.1333 487.889 56.2C489.622 58.2 490.489 60.4333 490.489 62.9C490.489 65.5667 489.556 67.7667 487.689 69.5C485.889 71.2333 483.422 72.1 480.289 72.1C477.089 72.1 474.589 71.3 472.789 69.7C470.989 68.0333 470.089 65.8 470.089 63C470.089 61.6667 470.289 60.2667 470.689 58.8C467.889 59.5333 465.389 61 463.189 63.2C461.056 65.3333 459.622 68.1667 458.889 71.7C458.489 73.7 458.289 75.5 458.289 77.1C458.289 80.7 459.289 83.4333 461.289 85.3C463.289 87.1667 466.156 88.1 469.889 88.1C472.022 88.1 473.856 87.9 475.389 87.5C476.922 87.0333 478.489 86.4333 480.089 85.7C481.422 85.0333 482.389 84.7 482.989 84.7C483.389 84.7 483.656 84.8 483.789 85C483.922 85.1333 483.989 85.4667 483.989 86C484.056 88.4667 483.022 91.0667 480.889 93.8C478.822 96.4667 475.922 98.7333 472.189 100.6C468.522 102.4 464.389 103.3 459.789 103.3C454.989 103.3 450.722 102.433 446.989 100.7C443.322 98.9 440.456 96.3667 438.389 93.1C436.389 89.7667 435.389 85.9 435.389 81.5C435.389 79.4333 435.656 77.1333 436.189 74.6C437.989 66.3333 441.956 60.1 448.089 55.9C454.289 51.7 461.622 49.6 470.089 49.6ZM547.288 50.1C551.088 50.1 554.122 51.1667 556.388 53.3C558.722 55.3667 559.888 57.9 559.888 60.9C559.888 64.1 558.922 66.6 556.988 68.4C555.055 70.2 552.522 71.1 549.388 71.1C546.588 71.1 544.422 70.4 542.888 69C541.355 67.5333 540.622 65.9 540.688 64.1C540.022 63.9667 539.455 64.2333 538.988 64.9C538.522 65.5667 538.022 66.8667 537.488 68.8C537.155 70.0667 536.522 71.2333 535.588 72.3C540.122 72.6333 543.488 73.6667 545.688 75.4C547.888 77.1333 548.988 79.3667 548.988 82.1C548.988 83.4333 548.755 84.7667 548.288 86.1L547.488 89.2C547.355 89.5333 547.288 89.9667 547.288 90.5C547.288 91.4333 547.722 91.9 548.588 91.9C549.388 91.9 550.055 91.5667 550.588 90.9C551.188 90.1667 551.588 89.8 551.788 89.8C552.122 89.8 552.388 90.0333 552.588 90.5C552.788 90.9 552.888 91.4 552.888 92C552.955 93.9333 552.355 95.8333 551.088 97.7C549.888 99.5 548.022 101 545.488 102.2C543.022 103.333 540.022 103.9 536.488 103.9C532.222 103.9 528.655 102.833 525.788 100.7C522.988 98.5667 521.588 95.7667 521.588 92.3C521.588 91.0333 521.855 89.6 522.388 88L524.288 83C524.622 81.8 524.788 80.9333 524.788 80.4C524.788 79.5333 524.488 78.9 523.888 78.5C523.355 78.1 522.488 77.9 521.288 77.9H519.288L514.788 92.6C514.588 93.4 514.488 94.1 514.488 94.7C514.488 95.5667 514.655 96.2667 514.988 96.8C515.322 97.2667 515.788 97.7333 516.388 98.2C516.855 98.6667 517.188 99.0667 517.388 99.4C517.588 99.6667 517.622 100.033 517.488 100.5C517.155 101.367 516.488 102 515.488 102.4C514.488 102.8 512.955 103 510.888 103H488.088C486.355 103 485.088 102.733 484.288 102.2C483.488 101.6 483.222 100.833 483.488 99.9C483.755 99.1 484.455 98.4 485.588 97.8C486.588 97.2667 487.422 96.6333 488.088 95.9C488.755 95.1667 489.322 94 489.788 92.4L504.988 42.5C505.188 41.9 505.288 41.4 505.288 41C505.288 40.2667 505.088 39.6667 504.688 39.2C504.355 38.7333 503.888 38.2667 503.288 37.8C502.622 37.2667 502.122 36.8 501.788 36.4C501.522 36 501.488 35.4667 501.688 34.8C502.088 33.2667 504.188 31.9333 507.988 30.8C511.788 29.6667 515.755 29.1 519.888 29.1C523.755 29.1 526.588 29.8333 528.388 31.3C530.188 32.7 531.088 34.6667 531.088 37.2C531.088 38.7333 530.855 40.2 530.388 41.6L521.688 70H524.988C526.322 70 527.388 69.6 528.188 68.8C529.055 68 529.722 66.8333 530.188 65.3C531.855 60.3667 534.022 56.6 536.688 54C539.355 51.4 542.888 50.1 547.288 50.1ZM591.81 49.6C600.277 49.6 606.41 50.9667 610.21 53.7C614.01 56.3667 615.91 59.8 615.91 64C615.91 65.2667 615.777 66.4333 615.51 67.5C614.51 71.9 611.71 75.0667 607.11 77C602.577 78.8667 597.21 79.8 591.01 79.8C587.877 79.8 584.943 79.6 582.21 79.2C582.143 82.6667 583.077 85.1 585.01 86.5C586.943 87.9 589.643 88.6 593.11 88.6C594.71 88.6 596.243 88.4333 597.71 88.1C599.177 87.7 601.043 87.1333 603.31 86.4C605.177 85.7333 606.443 85.4 607.11 85.4C607.843 85.4 608.21 85.8333 608.21 86.7C608.277 89.0333 607.41 91.5 605.61 94.1C603.81 96.6333 601.143 98.8 597.61 100.6C594.077 102.4 589.81 103.3 584.81 103.3C577.41 103.3 571.343 101.433 566.61 97.7C561.877 93.9667 559.51 88.5333 559.51 81.4C559.51 79.4 559.777 77.0667 560.31 74.4C561.977 66.2 565.61 60.0333 571.21 55.9C576.877 51.7 583.743 49.6 591.81 49.6ZM582.91 73.2C583.177 73.2667 583.543 73.3 584.01 73.3C586.81 73.3 588.943 72 590.41 69.4C591.877 66.8 592.577 63.9 592.51 60.7C592.443 58.8333 591.91 57.9 590.91 57.9C590.177 57.9 589.31 58.5 588.31 59.7C587.31 60.8333 586.31 62.5667 585.31 64.9C584.377 67.2333 583.577 70 582.91 73.2ZM662.967 50.1C666.701 50.1 669.667 51.2333 671.867 53.5C674.134 55.7667 675.267 58.5667 675.267 61.9C675.267 63.1667 675.134 64.3333 674.867 65.4C674.201 68.1333 672.934 70.2333 671.067 71.7C669.201 73.1667 666.967 73.9 664.367 73.9C661.834 73.9 659.901 73.3 658.567 72.1C657.301 70.9 656.167 69.3 655.167 67.3C654.634 66.1667 654.134 65.3333 653.667 64.8C653.201 64.2667 652.667 64 652.067 64C651.401 64 650.801 64.2667 650.267 64.8C649.801 65.3333 649.367 66.2667 648.967 67.6L641.267 92.6C641.134 92.9333 641.067 93.4333 641.067 94.1C641.067 94.9667 641.301 95.7 641.767 96.3C642.301 96.8333 643.001 97.3667 643.867 97.9C644.667 98.4333 645.201 98.8667 645.467 99.2C645.734 99.5333 645.834 99.9667 645.767 100.5C645.634 101.367 645.134 102 644.267 102.4C643.467 102.8 642.067 103 640.067 103H614.467C612.734 103 611.501 102.733 610.767 102.2C609.967 101.6 609.667 100.833 609.867 99.9C610.134 99.1 610.834 98.4 611.967 97.8C612.967 97.2667 613.801 96.6333 614.467 95.9C615.134 95.1667 615.701 94 616.167 92.4L625.067 63.5C625.201 63.1667 625.267 62.7 625.267 62.1C625.267 61.3667 625.101 60.8 624.767 60.4C624.501 60 624.034 59.5 623.367 58.9C622.701 58.3667 622.234 57.9 621.967 57.5C621.701 57.1 621.667 56.5667 621.867 55.9C622.267 54.3667 624.367 53.0333 628.167 51.9C631.967 50.7 635.934 50.1 640.067 50.1C642.801 50.1 645.067 50.7333 646.867 52C648.667 53.2 649.834 54.9333 650.367 57.2C653.567 52.4667 657.767 50.1 662.967 50.1Z" fill="#CC3A00"/>
</g>
<g clip-path="url(#clip1)" filter="url(#filter1_i)">
<path d="M771.041 28.0769C767.804 24.8381 756.813 30.5783 753.575 33.817L740.608 46.7853H681.621C680.219 46.7853 679.014 47.7817 678.752 49.1596C678.49 50.5372 679.244 51.9062 680.548 52.4213L719.554 67.8367L695.635 91.755H673.012C672.527 91.7565 672.108 92.101 672.018 92.5788C671.927 93.0578 672.188 93.5316 672.64 93.7099L691.678 101.234C691.787 101.712 691.941 102.18 692.137 102.637L691.304 103.472C690.118 104.657 690.118 106.579 691.304 107.766C692.489 108.952 694.414 108.952 695.599 107.766L696.412 106.953C696.873 107.157 697.348 107.317 697.832 107.432L705.17 126.238C705.346 126.692 705.821 126.954 706.3 126.865C706.506 126.828 706.688 126.726 706.828 126.585C707.014 126.402 707.125 126.148 707.125 125.869V103.723L731.423 79.425L746.693 118.561C747.204 119.868 748.574 120.628 749.954 120.369C750.55 120.257 751.074 119.968 751.479 119.566C752.012 119.031 752.335 118.297 752.336 117.497V58.5126L765.304 45.5445C768.54 42.306 774.279 31.3152 771.041 28.0769Z" fill="#CC3A00"/>
</g>
</g>
<defs>
<filter id="filter0_i" x="9" y="28" width="666.267" height="98" filterUnits="userSpaceOnUse" color-interpolation-filters="sRGB">
<feFlood flood-opacity="0" result="BackgroundImageFix"/>
<feBlend mode="normal" in="SourceGraphic" in2="BackgroundImageFix" result="shape"/>
<feColorMatrix in="SourceAlpha" type="matrix" values="0 0 0 0 0 0 0 0 0 0 0 0 0 0 0 0 0 0 127 0" result="hardAlpha"/>
<feOffset dy="4"/>
<feGaussianBlur stdDeviation="2"/>
<feComposite in2="hardAlpha" operator="arithmetic" k2="-1" k3="1"/>
<feColorMatrix type="matrix" values="0 0 0 0 0 0 0 0 0 0 0 0 0 0 0 0 0 0 0.25 0"/>
<feBlend mode="normal" in2="shape" result="effect1_innerShadow"/>
</filter>
<filter id="filter1_i" x="672" y="27" width="100" height="104" filterUnits="userSpaceOnUse" color-interpolation-filters="sRGB">
<feFlood flood-opacity="0" result="BackgroundImageFix"/>
<feBlend mode="normal" in="SourceGraphic" in2="BackgroundImageFix" result="shape"/>
<feColorMatrix in="SourceAlpha" type="matrix" values="0 0 0 0 0 0 0 0 0 0 0 0 0 0 0 0 0 0 127 0" result="hardAlpha"/>
<feOffset dy="4"/>
<feGaussianBlur stdDeviation="2"/>
<feComposite in2="hardAlpha" operator="arithmetic" k2="-1" k3="1"/>
<feColorMatrix type="matrix" values="0 0 0 0 0 0 0 0 0 0 0 0 0 0 0 0 0 0 0.25 0"/>
<feBlend mode="normal" in2="shape" result="effect1_innerShadow"/>
</filter>
<clipPath id="clip0">
<rect width="772" height="127" fill="white"/>
</clipPath>
<clipPath id="clip1">
<rect width="100" height="100" fill="white" transform="translate(672 27)"/>
</clipPath>
</defs>
</svg>
